<?xml version="1.0" standalone="no"?>
<!DOCTYPE svg PUBLIC "-//W3C//DTD SVG 20010904//EN"
 "http://www.w3.org/TR/2001/REC-SVG-20010904/DTD/svg10.dtd">
<svg version="1.0" xmlns="http://www.w3.org/2000/svg"
 width="500.000000pt" height="500.000000pt" viewBox="0 0 500.000000 500.000000"
 preserveAspectRatio="xMidYMid meet">
<metadata>
Created by potrace 1.14, written by Peter Selinger 2001-2017
</metadata>
<g transform="translate(0.000000,500.000000) scale(0.100000,-0.100000)"
fill="#000000" stroke="none">
<path d="M1604 4414 c-13 -17 -24 -36 -24 -42 0 -7 118 -10 381 -10 210 -1
383 -3 385 -5 4 -3 7 -459 4 -542 0 -6 -45 -9 -117 -8 -96 1 -135 -3 -212 -22
-213 -55 -273 -132 -356 -455 -14 -52 -34 -120 -46 -150 -28 -73 -33 -111 -34
-258 0 -67 -2 -122 -5 -122 -7 0 -50 68 -50 79 0 6 -5 13 -12 17 -7 4 -8 3 -4
-4 13 -22 -7 -12 -58 27 -55 41 -105 69 -139 78 -99 23 -139 23 -216 2 -52
-15 -50 -13 -132 -92 -41 -40 -52 -54 -32 -44 15 8 66 26 113 42 47 15 106 38
132 51 88 45 142 28 242 -74 75 -75 111 -138 166 -289 22 -59 45 -116 50 -125
17 -29 -7 -31 -55 -3 -25 15 -47 31 -50 35 -7 12 -115 73 -120 68 -6 -6 103
-216 143 -276 19 -30 60 -79 91 -111 96 -98 185 -152 437 -266 28 -13 89 -42
136 -64 47 -23 92 -41 101 -41 9 0 18 -8 21 -17 5 -16 11 -807 7 -933 -1 -40
-5 -48 -36 -67 -21 -14 -36 -19 -41 -12 -3 6 -16 14 -29 19 -15 6 -30 26 -42
60 l-19 51 -20 -27 c-10 -15 -29 -36 -41 -47 -13 -11 -23 -29 -23 -39 0 -11
-4 -16 -10 -13 -5 3 -10 2 -10 -3 0 -15 -46 -20 -67 -9 -41 24 -67 71 -58 110
2 12 7 60 10 105 3 46 10 95 15 108 5 13 7 24 4 24 -2 0 4 9 14 21 11 11 22
37 26 57 6 38 -7 63 -23 46 -14 -13 -57 -147 -76 -234 -24 -108 -65 -231 -76
-224 -5 3 -9 1 -9 -3 0 -5 -10 -14 -22 -22 l-23 -14 20 23 20 23 -32 -17 c-18
-9 -35 -16 -38 -16 -26 1 -29 -1 -17 -9 8 -4 13 -11 13 -15 -1 -3 -1 -8 -1
-10 0 -3 16 2 35 10 31 12 35 12 35 0 0 -23 -22 -66 -34 -67 -6 0 -22 -3 -36
-5 -14 -3 -34 -6 -45 -7 -11 -1 -23 -6 -26 -11 -4 -5 -15 -5 -25 -1 -11 5 -44
10 -74 11 -102 3 -98 2 -64 23 16 10 49 40 71 66 61 71 77 180 44 302 -14 50
-70 137 -114 176 -128 113 -369 132 -508 40 -48 -31 -112 -120 -140 -191 -17
-44 -23 -82 -25 -167 -3 -125 9 -185 58 -285 42 -86 170 -215 251 -254 61 -29
160 -60 217 -70 19 -3 51 -8 70 -11 19 -4 51 -8 70 -10 52 -6 250 -5 290 1 19
3 139 7 265 9 254 3 287 8 420 64 77 33 99 38 155 36 36 -1 79 -5 95 -9 64
-14 82 -17 140 -23 104 -12 330 -4 393 13 18 5 30 0 49 -21 38 -41 98 -64 151
-59 27 3 81 23 134 51 l89 46 -43 19 c-104 48 -115 51 -178 52 -34 0 -64 -9
-116 -36 -74 -38 -99 -44 -231 -53 -61 -4 -83 -3 -83 6 0 7 3 10 6 7 3 -4 20
0 39 7 18 8 35 11 39 8 3 -4 6 -2 6 4 0 5 6 10 13 10 18 0 112 48 173 88 28
19 73 60 100 91 27 31 54 61 59 67 25 28 78 111 99 156 13 28 29 58 37 68 13
17 13 17 -5 3 -18 -14 -18 -12 -11 50 4 36 8 79 10 95 2 17 9 53 15 80 23 95
25 121 24 260 -1 113 -5 154 -23 212 -12 40 -26 75 -31 78 -13 8 -13 -1 1 -26
6 -11 12 -30 15 -42 20 -93 27 -136 25 -159 -2 -49 -2 -62 2 -113 5 -61 -4
-93 -20 -73 -14 16 -23 118 -11 118 5 0 2 13 -7 30 -17 34 -18 40 -6 40 5 0
13 -9 16 -21 4 -11 9 -18 12 -16 12 13 -38 80 -121 163 -103 102 -138 127
-309 226 -67 38 -126 74 -131 79 -6 5 -10 340 -11 861 l-2 853 43 27 c47 29
65 68 46 99 -9 15 -8 19 9 24 11 4 22 5 24 3 13 -14 32 -81 28 -98 -7 -28 22
-59 48 -53 17 5 20 11 14 39 -5 31 -4 34 20 34 57 0 13 78 -64 113 -55 24 -97
25 -119 3 -14 -14 -15 -19 -3 -37 11 -19 10 -24 -8 -43 -15 -15 -24 -17 -29
-9 -6 9 -7 74 -3 168 1 20 29 39 102 68 32 13 39 13 70 -4 50 -27 101 -24 132
6 16 17 23 33 20 45 -5 20 -2 22 60 23 12 0 52 -3 89 -7 45 -6 78 -4 103 4 36
12 175 123 175 139 0 5 -17 11 -37 14 -21 4 -47 8 -58 11 -11 2 -30 5 -42 5
-18 1 -21 6 -17 26 6 32 -16 33 -71 4 -55 -28 -95 -76 -95 -114 -1 -41 -20
-63 -61 -70 -19 -3 -50 -8 -69 -12 -19 -3 -43 -10 -54 -15 -10 -6 -36 -12 -58
-14 -21 -3 -59 -14 -84 -24 -25 -11 -48 -20 -50 -20 -14 0 1 26 37 65 23 25
38 45 33 44 -5 0 -25 -20 -44 -44 -19 -25 -43 -54 -53 -66 -9 -12 -20 -19 -24
-15 -9 9 -12 442 -3 456 4 6 157 10 423 10 229 1 417 4 418 8 0 4 2 18 4 32 1
14 0 30 -4 35 -4 7 -395 10 -1140 10 l-1134 0 -23 -31z m696 -670 c22 -9 41
-19 41 -23 4 -16 6 -217 3 -223 -2 -3 -30 1 -61 9 -77 20 -205 23 -277 6 -88
-20 -195 -76 -263 -138 l-60 -54 9 56 c5 30 15 68 23 83 8 15 11 30 8 34 -4 3
-2 6 3 6 5 0 20 17 32 38 34 54 152 139 240 173 125 48 234 60 302 33z m-114
-338 c61 -9 152 -35 158 -45 5 -8 8 -374 7 -933 -1 -326 -1 -323 -58 -278 -17
13 -33 17 -54 13 -61 -12 -289 132 -311 197 -6 19 -130 58 -207 64 -22 2 -29
13 -53 84 -75 222 -84 483 -22 619 21 46 95 152 121 173 69 57 156 98 228 107
22 2 41 5 42 7 4 4 98 -1 149 -8z m-213 -1118 c18 -12 43 -33 57 -46 14 -12
70 -46 125 -73 55 -28 104 -54 108 -58 4 -4 -10 -20 -32 -34 -25 -17 -41 -36
-46 -55 -5 -24 -11 -29 -31 -26 -58 6 -134 38 -162 68 -58 61 -150 181 -146
191 5 11 73 54 87 55 5 0 23 -10 40 -22z m368 -203 c5 -59 3 -70 -13 -73 -15
-3 -18 4 -18 36 0 21 3 42 7 45 11 12 23 8 24 -8z m797 -322 c66 -71 226 -287
260 -352 102 -192 112 -441 25 -591 -22 -37 -27 -41 -33 -25 -6 17 -8 16 -14
-9 -16 -65 -89 -146 -163 -181 -18 -9 -35 -20 -38 -25 -3 -6 -15 -10 -25 -10
-10 0 -27 -10 -37 -22 -71 -89 -221 -142 -410 -147 -92 -3 -90 6 28 83 49 32
89 63 89 68 0 4 4 8 9 8 18 0 181 155 181 172 0 4 8 12 19 17 15 8 25 5 47
-15 16 -14 45 -32 64 -40 19 -8 38 -20 42 -27 5 -9 8 -8 8 4 0 8 13 25 29 37
37 27 73 102 69 142 l-3 30 -38 -26 c-20 -15 -38 -25 -40 -23 -2 2 -17 21 -35
42 l-32 38 -20 -33 c-11 -18 -20 -39 -20 -45 0 -7 -7 -13 -16 -13 -13 0 -12 5
5 34 46 74 83 222 86 351 5 145 -27 295 -91 433 -32 69 -33 172 -1 172 6 0 31
-21 55 -47z m-1363 -1012 c3 -5 2 -12 -3 -15 -5 -3 -9 1 -9 9 0 17 3 19 12 6z
m-540 -207 c22 -25 40 -49 40 -54 0 -5 3 -12 8 -16 12 -12 8 -34 -7 -40 -19
-7 -70 31 -102 77 -22 32 -24 40 -12 58 18 30 28 27 73 -25z m1045 6 c14 -27
2 -48 -61 -103 -84 -73 -243 -138 -303 -123 l-27 7 23 40 c23 41 67 69 133 85
50 12 149 61 175 88 31 30 46 32 60 6z"/>
<path d="M1807 2783 c-3 -5 -9 -47 -12 -93 -8 -98 2 -131 59 -199 20 -24 36
-51 36 -62 0 -10 5 -19 11 -19 5 0 8 4 5 8 -2 4 5 28 16 52 26 59 26 135 0
186 -26 49 -107 140 -115 127z"/>
<path d="M2052 2514 c3 -10 15 -54 26 -97 38 -140 82 -198 160 -210 31 -5 35
-3 48 30 47 110 -22 231 -152 269 -33 9 -65 19 -73 22 -10 4 -13 0 -9 -14z"/>
<path d="M3165 629 c-4 -6 -5 -12 -2 -15 2 -3 7 2 10 11 7 17 1 20 -8 4z"/>
<path d="M3340 4254 c-19 -8 -49 -31 -67 -51 -30 -32 -33 -40 -27 -79 4 -33 2
-48 -11 -60 -20 -20 -13 -29 12 -16 10 6 40 17 68 25 76 22 95 60 82 166 -4
31 -14 34 -57 15z"/>
<path d="M1945 4021 c-111 -51 -187 -113 -227 -185 -18 -30 -18 -30 -18 -6 0
45 -14 53 -43 26 -32 -29 -33 -53 -11 -136 l17 -59 -29 -33 c-16 -19 -38 -50
-48 -70 -18 -33 -21 -35 -32 -20 -12 16 -13 15 -20 -3 -10 -27 -46 -75 -56
-75 -4 0 -11 12 -14 26 -4 16 -12 23 -20 20 -8 -3 -15 0 -15 7 -4 37 -8 56
-21 91 l-15 40 -11 -32 c-12 -35 -26 -41 -36 -16 -9 24 -27 6 -22 -23 4 -18 1
-23 -9 -19 -16 6 -12 -31 5 -48 5 -5 10 -17 10 -25 0 -11 -4 -10 -20 4 -18 16
-20 16 -26 1 -3 -9 1 -27 10 -41 20 -30 20 -39 1 -31 -19 7 -19 -8 0 -27 8 -8
12 -17 9 -20 -10 -9 -37 5 -61 32 -18 21 -22 22 -23 9 0 -9 5 -20 10 -23 6 -4
8 -14 5 -24 -3 -11 6 -28 25 -46 37 -35 38 -48 5 -35 -16 6 -25 6 -25 0 0 -22
83 -99 138 -128 l57 -31 49 24 c74 36 75 38 81 233 3 123 5 136 31 179 33 56
70 93 95 93 10 0 28 13 40 29 12 16 46 46 76 67 47 32 59 48 95 123 46 97 65
124 110 158 45 33 10 30 -67 -6z"/>
<path d="M3377 3869 c-59 -16 -130 -71 -111 -87 15 -13 81 -33 121 -37 51 -5
95 18 126 65 l25 39 -31 7 c-18 3 -36 9 -41 12 -13 8 -62 8 -89 1z"/>
<path d="M1440 3085 c0 -5 5 -17 10 -25 5 -8 10 -10 10 -5 0 6 -5 17 -10 25
-5 8 -10 11 -10 5z"/>
<path d="M1480 2970 c6 -11 13 -20 16 -20 2 0 0 9 -6 20 -6 11 -13 20 -16 20
-2 0 0 -9 6 -20z"/>
<path d="M3654 2122 c-6 -4 -32 -34 -59 -67 -26 -33 -49 -61 -50 -63 -2 -2
-12 1 -23 7 -18 10 -19 7 -18 -49 2 -53 6 -64 35 -94 21 -22 31 -41 28 -50 -4
-9 -2 -16 2 -16 5 0 11 4 13 10 2 5 23 20 47 32 59 31 79 61 87 131 5 50 4 56
-10 51 -12 -5 -16 0 -17 17 -1 42 -23 99 -35 91z"/>
<path d="M3116 2018 c29 -34 43 -45 113 -85 l63 -36 -43 -21 c-51 -24 -62 -51
-26 -58 38 -7 176 2 217 15 9 3 44 -27 73 -61 15 -19 27 -30 27 -25 0 4 -15
24 -33 44 -59 64 -61 68 -48 83 30 36 -128 130 -239 141 -35 4 -75 11 -88 16
-35 13 -37 11 -16 -13z"/>
<path d="M3584 1736 c-18 -29 -11 -68 12 -59 8 3 21 0 29 -7 8 -7 15 -9 15 -4
0 4 5 3 12 -4 21 -21 38 -13 38 17 0 63 -75 104 -106 57z"/>
<path d="M3550 1735 c0 -8 4 -15 8 -15 5 0 9 7 9 15 0 8 -4 15 -9 15 -4 0 -8
-7 -8 -15z"/>
<path d="M3885 1486 c-38 -18 -80 -44 -93 -58 -40 -44 -63 -129 -61 -229 1
-71 -2 -94 -17 -116 -28 -43 -74 -136 -70 -141 3 -2 19 27 38 65 29 60 40 71
88 98 68 37 105 69 135 115 34 53 46 97 60 205 3 28 9 60 12 73 7 30 -7 28
-92 -12z"/>
<path d="M3626 913 c-6 -14 -5 -15 5 -6 7 7 10 15 7 18 -3 3 -9 -2 -12 -12z"/>
<path d="M3720 712 c-32 -14 -56 -38 -76 -78 -13 -24 -17 -41 -10 -41 6 -1 35
-10 65 -21 30 -11 68 -18 85 -15 58 8 165 71 153 91 -4 5 -30 22 -59 37 -51
27 -128 40 -158 27z"/>
<path d="M3507 588 c-16 -10 20 -9 53 2 23 8 22 8 -8 7 -18 -1 -38 -5 -45 -9z"/>
</g>
</svg>
